<svg id="_x31__px" height="36" viewBox="0 0 24 24" width="48" xmlns="http://www.w3.org/2000/svg"><path d="m16.5 24c-.051 0-.103-.008-.152-.024-.207-.066-.348-.259-.348-.476v-10c0-.202.122-.385.309-.462s.402-.034.545.108l7 7c.15.15.189.379.097.57-.091.191-.296.3-.506.28l-4.208-.468-2.329 3.261c-.096.135-.25.211-.408.211zm.5-9.293v7.233l1.593-2.23c.105-.147.287-.225.463-.207l3.083.343z"/><path d="m11 7h-3c-.276 0-.5-.224-.5-.5s.224-.5.5-.5h3c.276 0 .5.224.5.5s-.224.5-.5.5z"/><path d="m11 9c-.276 0-.5-.224-.5-.5v-5c0-.276.224-.5.5-.5s.5.224.5.5v5c0 .276-.224.5-.5.5z"/><path d="m8 9c-.276 0-.5-.224-.5-.5v-5c0-.276.224-.5.5-.5s.5.224.5.5v5c0 .276-.224.5-.5.5z"/><path d="m15 9h-1c-.827 0-1.5-.673-1.5-1.5v-3c0-.827.673-1.5 1.5-1.5h1c.827 0 1.5.673 1.5 1.5v3c0 .827-.673 1.5-1.5 1.5zm-1-5c-.275 0-.5.224-.5.5v3c0 .276.225.5.5.5h1c.275 0 .5-.224.5-.5v-3c0-.276-.225-.5-.5-.5z"/><path d="m4.25 9h-1.75c-.276 0-.5-.224-.5-.5s.224-.5.5-.5h1.75c.413 0 .75-.336.75-.75s-.337-.75-.75-.75h-.5c-.965 0-1.75-.785-1.75-1.75s.785-1.75 1.75-1.75h1.75c.276 0 .5.224.5.5s-.224.5-.5.5h-1.75c-.413 0-.75.336-.75.75s.337.75.75.75h.5c.965 0 1.75.785 1.75 1.75s-.785 1.75-1.75 1.75z"/><path d="m18.5 9c-.276 0-.5-.224-.5-.5v-5c0-.276.224-.5.5-.5h1.5c1.103 0 2 .897 2 2s-.897 2-2 2h-1v1.5c0 .276-.224.5-.5.5zm.5-3h1c.552 0 1-.449 1-1s-.448-1-1-1h-1z"/><path d="m21.5 12h-2c-.276 0-.5-.224-.5-.5s.224-.5.5-.5h2c.827 0 1.5-.673 1.5-1.5v-7c0-.827-.673-1.5-1.5-1.5h-19c-.827 0-1.5.673-1.5 1.5v7c0 .827.673 1.5 1.5 1.5h11c.276 0 .5.224.5.5s-.224.5-.5.5h-11c-1.379 0-2.5-1.122-2.5-2.5v-7c0-1.378 1.121-2.5 2.5-2.5h19c1.379 0 2.5 1.122 2.5 2.5v7c0 1.378-1.121 2.5-2.5 2.5z"/></svg>